<?xml version="1.0" encoding="utf-8"?>
<!-- Generator: Adobe Illustrator 21.0.2, SVG Export Plug-In . SVG Version: 6.00 Build 0)  -->
<svg version="1.1" id="Layer_1" xmlns="http://www.w3.org/2000/svg" xmlns:xlink="http://www.w3.org/1999/xlink" x="0px" y="0px"
	 viewBox="0 0 160 110" style="enable-background:new 0 0 160 110;" xml:space="preserve">
<style type="text/css">
	.st0{fill:#4B4B4B;}
	.st1{fill:#7C7C7C;}
	.st2{fill:#FFFFFF;}
	.st3{fill:#E1D9BE;}
	.st4{fill:#E20074;}
	.st5{fill:#B0005A;}
	.st6{}
	.st7{fill:#FFFFFF;stroke:#7C7C7C;stroke-linejoin:bevel;stroke-miterlimit:10;}
	.st8{fill:#FFFFFF;stroke:#7C7C7C;stroke-linejoin:round;stroke-miterlimit:10;}
	.st9{fill:none;stroke:#7C7C7C;stroke-linejoin:bevel;stroke-miterlimit:10;}
	.st10{fill:none;stroke:#7C7C7C;stroke-linejoin:round;stroke-miterlimit:10;}
</style>
<g>
	<rect x="0" y="40" class="st0" width="32" height="21"/>
</g>
<g>
	<rect x="0.5" y="81.5" class="st2" width="31" height="4"/>
	<path class="st1" d="M31,82v3H1v-3H31 M32,81H0v5h32V81L32,81z"/>
</g>
<g>
	<rect x="0" y="61" width="16" height="20"/>
</g>
<g>
	<rect x="16" y="61" width="16" height="20"/>
</g>
<g>
	<rect x="0.7" y="59.5" class="st6 SCREEN INFO INFO1" id="INFO1" fill="#555555" width="11" height="21"/>
	<path d="M11.2,60v20h-10V60H11.2 M12.2,59h-12v22h12V59L12.2,59z"/>
</g>
<g>
	<rect x="32" y="40" class="st0" width="32" height="21"/>
</g>
<g>
	<rect x="32.5" y="81.5" class="st2" width="31" height="4"/>
	<path class="st1" d="M63,82v3H33v-3H63 M64,81H32v5h32V81L64,81z"/>
</g>
<g>
	<rect x="32" y="61" width="16" height="20"/>
</g>
<g>
	<rect x="48" y="61" width="16" height="20"/>
</g>
<g>
	<rect x="32.7" y="59.5" class="st6 SCREEN INFO INFO2" id="INFO2" fill="#555555" width="11" height="21"/>
	<path d="M43.2,60v20h-10V60H43.2 M44.2,59h-12v22h12V59L44.2,59z"/>
</g>
<g>
	<rect x="64" y="40" class="st0" width="32" height="21"/>
</g>
<g>
	<rect x="64.5" y="81.5" class="st2" width="31" height="4"/>
	<path class="st1" d="M95,82v3H65v-3H95 M96,81H64v5h32V81L96,81z"/>
</g>
<g>
	<rect x="64" y="61" width="16" height="20"/>
</g>
<g>
	<rect x="80" y="61" width="16" height="20"/>
</g>
<g>
	<rect x="64.7" y="59.5" class="st6 SCREEN INFO INFO3" id="INFO3" fill="#555555" width="11" height="21"/>
	<path d="M75.2,60v20h-10V60H75.2 M76.2,59h-12v22h12V59L76.2,59z"/>
</g>
<g>
	<rect x="96" y="40" class="st0" width="32" height="21"/>
</g>
<g>
	<rect x="96.5" y="81.5" class="st2" width="31" height="4"/>
	<path class="st1" d="M127,82v3H97v-3H127 M128,81H96v5h32V81L128,81z"/>
</g>
<g>
	<rect x="96" y="61" width="16" height="20"/>
</g>
<g>
	<rect x="112" y="61" width="16" height="20"/>
</g>
<g>
	<rect x="96.7" y="59.5" class="st6 SCREEN INFO INFO4" id="INFO4" fill="#555555" width="11" height="21"/>
	<path d="M107.2,60v20h-10V60H107.2 M108.2,59h-12v22h12V59L108.2,59z"/>
</g>
<g>
	<rect x="128" y="40" class="st0" width="32" height="21"/>
</g>
<g>
	<rect x="128.5" y="81.5" class="st2" width="31" height="4"/>
	<path class="st1" d="M159,82v3h-30v-3H159 M160,81h-32v5h32V81L160,81z"/>
</g>
<g>
	<rect x="128" y="61" width="16" height="20"/>
</g>
<g>
	<rect x="144" y="61" width="16" height="20"/>
</g>
<g>
	<rect x="128.7" y="59.5" class="st6 SCREEN INFO INFO5" id="INFO5" fill="#555555" width="11" height="21"/>
	<path d="M139.2,60v20h-10V60H139.2 M140.2,59h-12v22h12V59L140.2,59z"/>
</g>
</svg>
