<?xml version="1.0" encoding="utf-8"?>
<!-- Generator: Adobe Illustrator 21.0.2, SVG Export Plug-In . SVG Version: 6.00 Build 0)  -->
<svg version="1.1" id="Layer_1" xmlns="http://www.w3.org/2000/svg" xmlns:xlink="http://www.w3.org/1999/xlink" x="0px" y="0px"
	 viewBox="0 0 54 110" style="enable-background:new 0 0 54 110;" xml:space="preserve">
<style type="text/css">
	.st0{fill:#4B4B4B;}
	.st1{fill:#7C7C7C;}
	.st2{fill:#FFFFFF;}
	.st3{fill:#E1D9BE;}
	.st4{fill:#E20074;}
	.st5{fill:#B0005A;}
	.st6{}
	.st7{fill:#FFFFFF;stroke:#7C7C7C;stroke-linejoin:bevel;stroke-miterlimit:10;}
	.st8{fill:#FFFFFF;stroke:#7C7C7C;stroke-linejoin:round;stroke-miterlimit:10;}
	.st9{fill:none;stroke:#7C7C7C;stroke-linejoin:bevel;stroke-miterlimit:10;}
	.st10{fill:none;stroke:#7C7C7C;stroke-linejoin:round;stroke-miterlimit:10;}
</style>
<g>
	<rect x="36" y="82" class="st2" width="17" height="4"/>
	<path class="st1" d="M53,82v3H37v-3H53 M54,81H36v5h18V81L54,81z"/>
</g>
<g>
	<rect x="37" y="86" width="17" height="19"/>
</g>
<g>
	<rect x="36" y="38" class="st0" width="17" height="31"/>
	<path class="st1" d="M53,38v30H37V38H53 M54,37H36v32h18V37L54,37z"/>
</g>
<g>
	<rect x="31" y="38" class="st0" width="5" height="67"/>
	<path class="st1" d="M36,38v66h-4V38H36 M37,37h-6v68h6V37L37,37z"/>
</g>
<g>
	<rect x="36" y="50" class="st6 SCREEN INFO INFO1" id="INFO1" fill="#555555" width="17" height="31"/>
	<path d="M53,50v30H37V50H53 M54,49H36v32h18V49L54,49z"/>
</g>
<g>
	<g>
		<rect x="0" y="38" class="st0" width="31" height="44"/>
		<path class="st1" d="M31,38v43H1V38H31 M32,37H0v45h32V37L32,37z"/>
	</g>
	<g>
		<rect x="0" y="82" class="st2" width="31" height="4"/>
		<path class="st1" d="M31,82v3H1v-3H31 M32,81H0v5h32V81L32,81z"/>
	</g>
	<g>
		<rect x="0" y="59" class="st6 SCREEN TOP" id="TOP" fill="#555555" width="31" height="17"/>
		<path d="M31,59v16H1V59H31 M32,58H0v18h32V58L32,58z"/>
	</g>
</g>
</svg>
