<?xml version="1.0" encoding="utf-8"?>
<!-- Generator: Adobe Illustrator 21.0.2, SVG Export Plug-In . SVG Version: 6.00 Build 0)  -->
<svg version="1.1" id="Layer_1" xmlns="http://www.w3.org/2000/svg" xmlns:xlink="http://www.w3.org/1999/xlink" x="0px" y="0px"
	 viewBox="0 0 95 110" style="enable-background:new 0 0 95 110;" xml:space="preserve">
<style type="text/css">
	.st0{fill:#4B4B4B;}
	.st1{fill:#7C7C7C;}
	.st2{fill:#FFFFFF;}
	.st3{fill:#E1D9BE;}
	.st4{fill:#E20074;}
	.st5{fill:#B0005A;}
	.st6{}
	.st7{fill:#FFFFFF;stroke:#7C7C7C;stroke-linejoin:bevel;stroke-miterlimit:10;}
	.st8{fill:#FFFFFF;stroke:#7C7C7C;stroke-linejoin:round;stroke-miterlimit:10;}
	.st9{fill:none;stroke:#7C7C7C;stroke-linejoin:bevel;stroke-miterlimit:10;}
	.st10{fill:none;stroke:#7C7C7C;stroke-linejoin:round;stroke-miterlimit:10;}
</style>
<g>
	<rect x="69" y="38" class="st0" width="4" height="67"/>
	<path class="st1" d="M73,38v66h-3V38H73 M74,37h-5v68h5V37L74,37z"/>
</g>
<g>
	<rect x="0" y="38" class="st0" width="69" height="44"/>
	<path class="st1" d="M69,38v43H1V38H69 M70,37H0v45h70V37L70,37z"/>
</g>
<g>
	<rect x="73" y="82" class="st2" width="17" height="4"/>
	<path class="st1" d="M90,82v3H74v-3H90 M91,81H73v5h18V81L91,81z"/>
</g>
<g>
	<rect x="0" y="82" class="st2" width="69" height="4"/>
	<path class="st1" d="M69,82v3H1v-3H69 M70,81H0v5h70V81L70,81z"/>
</g>
<g>
	<rect x="74" y="86" width="16" height="19"/>
</g>
<g>
	<rect x="73" y="38" class="st0" width="17" height="31"/>
	<path class="st1" d="M90,38v30H74V38H90 M91,37H73v32h18V37L91,37z"/>
</g>
<g>
	<rect x="90" y="38" class="st0" width="4" height="67"/>
	<path class="st1" d="M94,38v66h-3V38H94 M95,37h-5v68h5V37L95,37z"/>
</g>
<g>
	<rect x="73" y="50" class="st6 SCREEN INFO INFO1" id="INFO1" fill="#555555" width="17" height="31"/>
	<path d="M90,50v30H74V50H90 M91,49H73v32h18V49L91,49z"/>
</g>
<g>
	<g>
		<rect x="3" y="41" class="st6 SCREEN INFO INFO2" id="INFO2" fill="#555555" width="31" height="17"/>
		<path d="M34,41v16H4V41H34 M35,40H3v18h32V40L35,40z"/>
	</g>
	<g>
		<rect x="35" y="41" class="st6 SCREEN INFO INFO3" id="INFO3" fill="#555555" width="31" height="17"/>
		<path d="M66,41v16H36V41H66 M67,40H35v18h32V40L67,40z"/>
	</g>
	<g>
		<rect x="3" y="59" class="st6 SCREEN INFO INFO4" id="INFO4" fill="#555555" width="31" height="17"/>
		<path d="M34,59v16H4V59H34 M35,58H3v18h32V58L35,58z"/>
	</g>
	<g>
		<rect x="35" y="59" class="st6 SCREEN INFO INFO5" id="INFO5" fill="#555555" width="31" height="17"/>
		<path d="M66,59v16H36V59H66 M67,58H35v18h32V58L67,58z"/>
	</g>
</g>
</svg>
