<?xml version="1.0" encoding="utf-8"?>
<!-- Generator: Adobe Illustrator 21.0.2, SVG Export Plug-In . SVG Version: 6.00 Build 0)  -->
<svg version="1.1" id="Layer_1" xmlns="http://www.w3.org/2000/svg" xmlns:xlink="http://www.w3.org/1999/xlink" x="0px" y="0px"
	 viewBox="0 0 108 110" style="enable-background:new 0 0 108 110;" xml:space="preserve">
<style type="text/css">
	.st0{fill:#4B4B4B;}
	.st1{fill:#7C7C7C;}
	.st2{fill:#FFFFFF;}
	.st3{fill:#E1D9BE;}
	.st4{fill:#E20074;}
	.st5{fill:#B0005A;}
	.st6{}
	.st7{fill:#FFFFFF;stroke:#7C7C7C;stroke-linejoin:bevel;stroke-miterlimit:10;}
	.st8{fill:#FFFFFF;stroke:#7C7C7C;stroke-linejoin:round;stroke-miterlimit:10;}
	.st9{fill:none;stroke:#7C7C7C;stroke-linejoin:bevel;stroke-miterlimit:10;}
	.st10{fill:none;stroke:#7C7C7C;stroke-linejoin:round;stroke-miterlimit:10;}
</style>
<g>
	<rect x="0.5" y="15.5" class="st2" width="48.2" height="94"/>
	<g>
		<path class="st1" d="M48.2,16v93H1V16H48.2 M49.2,15H0v95h49.2V15L49.2,15z"/>
	</g>
</g>
<g>
	<polygon class="st2" points="49.3,109.5 49.5,15.5 98.5,15.5 98.5,109.5 	"/>
	<g>
		<path class="st1" d="M98,16v93H49.8L50,16H98 M99,15H49l-0.2,95H99V15L99,15z"/>
	</g>
</g>
<g>
	<path class="st2" d="M57,77.5c-1.9,0-3.5-1.6-3.5-3.5s1.6-3.5,3.5-3.5h4c1.9,0,3.5,1.6,3.5,3.5s-1.6,3.5-3.5,3.5H57z"/>
	<g>
		<path class="st1" d="M61,71c1.7,0,3,1.3,3,3s-1.3,3-3,3h-4c-1.7,0-3-1.3-3-3s1.3-3,3-3H61 M61,70h-4c-2.2,0-4,1.8-4,4s1.8,4,4,4h4
			c2.2,0,4-1.8,4-4S63.2,70,61,70L61,70z"/>
	</g>
</g>
<g>
	<path class="st2" d="M37,77.5c-1.9,0-3.5-1.6-3.5-3.5s1.6-3.5,3.5-3.5h4c1.9,0,3.5,1.6,3.5,3.5s-1.6,3.5-3.5,3.5H37z"/>
	<g>
		<path class="st1" d="M41,71c1.7,0,3,1.3,3,3s-1.3,3-3,3h-4c-1.7,0-3-1.3-3-3s1.3-3,3-3H41 M41,70h-4c-2.2,0-4,1.8-4,4s1.8,4,4,4h4
			c2.2,0,4-1.8,4-4S43.2,70,41,70L41,70z"/>
	</g>
</g>
<g>
	<polygon class="st6 SCREEN TOP" id="TOP" fill="#555555" points="99.5,109.5 99.5,14.5 0.5,14.5 0.5,6.5 107.5,6.5 107.5,109.5 	"/>
	<path d="M107,7v7v1v94h-7V15v-1h-1H1V7H107 M108,6H0v9h99v95h9V15v-1V6L108,6z"/>
</g>
</svg>
