<?xml version="1.0" encoding="utf-8"?>
<!-- Generator: Adobe Illustrator 21.0.2, SVG Export Plug-In . SVG Version: 6.00 Build 0)  -->
<svg version="1.1" id="Layer_1" xmlns="http://www.w3.org/2000/svg" xmlns:xlink="http://www.w3.org/1999/xlink" x="0px" y="0px"
	 viewBox="0 0 45.1 110" style="enable-background:new 0 0 45.1 110;" xml:space="preserve">
<style type="text/css">
	.st0{fill:#4B4B4B;}
	.st1{fill:#7C7C7C;}
	.st2{fill:#FFFFFF;}
	.st3{fill:#E1D9BE;}
	.st4{fill:#E20074;}
	.st5{fill:#B0005A;}
	.st6{}
	.st7{fill:#FFFFFF;stroke:#7C7C7C;stroke-linejoin:bevel;stroke-miterlimit:10;}
	.st8{fill:#FFFFFF;stroke:#7C7C7C;stroke-linejoin:round;stroke-miterlimit:10;}
	.st9{fill:none;stroke:#7C7C7C;stroke-linejoin:bevel;stroke-miterlimit:10;}
	.st10{fill:none;stroke:#7C7C7C;stroke-linejoin:round;stroke-miterlimit:10;}
</style>
<g>
	<rect x="13.1" y="39" class="st4" width="31" height="54"/>
	<path class="st5" d="M44.1,39v53h-30V39H44.1 M45.1,38h-32v55h32V38L45.1,38z"/>
</g>
<g>
	<rect x="2.1" y="37" class="st4" width="28" height="25"/>
	<path class="st5" d="M30.1,37v24h-27V37H30.1 M31.1,36h-29v26h29V36L31.1,36z"/>
</g>
<g>
	<rect x="0.1" y="50" class="st4" width="37" height="55"/>
	<path class="st5" d="M37.1,50v54h-36V50H37.1 M38.1,49h-38v56h38V49L38.1,49z"/>
</g>
<g>
	<rect x="35.1" y="45" class="st4" width="7" height="58"/>
	<path class="st5" d="M42.1,45v57h-6V45H42.1 M43.1,44h-8v59h8V44L43.1,44z"/>
</g>
<g>
	<rect x="8.1" y="40" width="28" height="41"/>
</g>
<g>
	<rect x="14.1" y="97" width="16" height="13"/>
</g>
<g>
	<rect x="6.1" y="82" class="st2" width="31" height="15"/>
	<path class="st1" d="M37.1,82v14h-30V82H37.1 M38.1,81h-32v16h32V81L38.1,81z"/>
</g>
<g>
	<rect x="6.1" y="41" class="st6 SCREEN TOP TOP1" id="TOP1" fill="#555555" width="31" height="17"/>
	<path d="M37.1,41v16h-30V41H37.1 M38.1,40h-32v18h32V40L38.1,40z"/>
</g>
<g>
	<rect x="6.1" y="60" class="st6 SCREEN INFO INFO1" id="INFO1" fill="#555555" width="11" height="21"/>
	<path d="M17.1,60v20h-10V60H17.1 M18.1,59h-12v22h12V59L18.1,59z"/>
</g>
<g>
	<rect x="26.1" y="60" class="st6 SCREEN INFO INFO2" id="INFO2" fill="#555555" width="11" height="21"/>
	<path d="M37.1,60v20h-10V60H37.1 M38.1,59h-12v22h12V59L38.1,59z"/>
</g>
</svg>
