<?xml version="1.0" encoding="utf-8"?>
<!-- Generator: Adobe Illustrator 21.0.2, SVG Export Plug-In . SVG Version: 6.00 Build 0)  -->
<svg version="1.1" id="Layer_1" xmlns="http://www.w3.org/2000/svg" xmlns:xlink="http://www.w3.org/1999/xlink" x="0px" y="0px"
	 viewBox="0 0 68 110" style="enable-background:new 0 0 68 110;" xml:space="preserve">
<style type="text/css">
	.st0{fill:#4B4B4B;}
	.st1{fill:#7C7C7C;}
	.st2{fill:#FFFFFF;}
	.st3{fill:#E1D9BE;}
	.st4{fill:#E20074;}
	.st5{fill:#B0005A;}
	.st6{}
	.st7{fill:#FFFFFF;stroke:#7C7C7C;stroke-linejoin:bevel;stroke-miterlimit:10;}
	.st8{fill:#FFFFFF;stroke:#7C7C7C;stroke-linejoin:round;stroke-miterlimit:10;}
	.st9{fill:none;stroke:#7C7C7C;stroke-linejoin:bevel;stroke-miterlimit:10;}
	.st10{fill:none;stroke:#7C7C7C;stroke-linejoin:round;stroke-miterlimit:10;}
</style>
<g>
	<rect y="38" class="st0" width="67" height="41"/>
	<path class="st1" d="M67,38v40H1V38H67 M68,37H0v42h68V37L68,37z"/>
</g>
<g>
	<rect x="2" y="41" class="st6 SCREEN TOP TOP1" id="TOP1" fill="#555555" width="31" height="17"/>
	<path d="M33,41v16H3V41H33 M34,40H2v18h32V40L34,40z"/>
</g>
<g>
	<rect x="34" y="41" class="st6 SCREEN TOP TOP2" id="TOP2" fill="#555555" width="31" height="17"/>
	<path d="M65,41v16H35V41H65 M66,40H34v18h32V40L66,40z"/>
</g>
<g>
	<rect x="2" y="59" class="st6 SCREEN TOP TOP3" id="TOP3" fill="#555555" width="31" height="17"/>
	<path d="M33,59v16H3V59H33 M34,58H2v18h32V58L34,58z"/>
</g>
<g>
	<rect x="34" y="59" class="st6 SCREEN TOP TOP4" id="TOP4" fill="#555555" width="31" height="17"/>
	<path d="M65,59v16H35V59H65 M66,58H34v18h32V58L66,58z"/>
</g>
</svg>
