<?xml version="1.0" encoding="utf-8"?>
<!-- Generator: Adobe Illustrator 20.1.0, SVG Export Plug-In . SVG Version: 6.00 Build 0)  -->
<svg version="1.1" id="Layer_1" xmlns="http://www.w3.org/2000/svg" xmlns:xlink="http://www.w3.org/1999/xlink" x="0px" y="0px"
	 viewBox="0 0 80 110" style="enable-background:new 0 0 80 110;" xml:space="preserve">
<style type="text/css">
	.st0{fill:#E1D9BE;}
	.st1{fill:#7C7C7C;}
	.st2{fill:#4B4B4B;}
	.st3{fill:#E20074;}
	.st4{fill:#B0005A;}
	.st5{fill:#FFFFFF;}
	.st6{}
	.st7{fill:#FFFFFF;stroke:#7C7C7C;stroke-linejoin:bevel;stroke-miterlimit:10;}
	.st8{fill:#FFFFFF;stroke:#7C7C7C;stroke-linejoin:round;stroke-miterlimit:10;}
	.st9{fill:none;stroke:#7C7C7C;stroke-linejoin:bevel;stroke-miterlimit:10;}
	.st10{fill:none;stroke:#7C7C7C;stroke-linejoin:round;stroke-miterlimit:10;}
	.st11{fill:#FFFFFF;}
</style>
<g>
	<rect x="14" y="74" class="st11" width="51" height="8"/>
	<g>
		<path class="st1" d="M65,74v7H15v-7H65 M66,73H14v9h52V73L66,73z"/>
	</g>
</g>
<g>
	<rect x="14" y="82" class="st11" width="51" height="4"/>
	<g>
		<path class="st1" d="M65,82v3H15v-3H65 M66,81H14v5h52V81L66,81z"/>
	</g>
</g>
<g>
	<rect x="14" y="86" class="st11" width="51" height="17"/>
	<g>
		<path class="st1" d="M65,86v16H15V86H65 M66,85H14v18h52V85L66,85z"/>
	</g>
</g>
<g>
	<rect x="51" y="71" class="st6 SCREEN INFO" id="INFO" fill="#555555" width="11" height="7"/>
	<path d="M62,71v6H52v-6H62 M63,70H51v8h12V70L63,70z"/>
</g>
</svg>
