<?xml version="1.0" encoding="utf-8"?>
<!-- Generator: Adobe Illustrator 21.0.2, SVG Export Plug-In . SVG Version: 6.00 Build 0)  -->
<svg version="1.1" id="Layer_1" xmlns="http://www.w3.org/2000/svg" xmlns:xlink="http://www.w3.org/1999/xlink" x="0px" y="0px"
	 viewBox="0 0 63 110" style="enable-background:new 0 0 63 110;" xml:space="preserve">
<style type="text/css">
	.st0{fill:#4B4B4B;}
	.st1{fill:#7C7C7C;}
	.st2{fill:#FFFFFF;}
	.st3{fill:#E1D9BE;}
	.st4{fill:#E20074;}
	.st5{fill:#B0005A;}
	.st6{}
	.st7{fill:#FFFFFF;stroke:#7C7C7C;stroke-linejoin:bevel;stroke-miterlimit:10;}
	.st8{fill:#FFFFFF;stroke:#7C7C7C;stroke-linejoin:round;stroke-miterlimit:10;}
	.st9{fill:none;stroke:#7C7C7C;stroke-linejoin:bevel;stroke-miterlimit:10;}
	.st10{fill:none;stroke:#7C7C7C;stroke-linejoin:round;stroke-miterlimit:10;}
</style>
<g>
	<rect x="0.5" y="40.5" class="st6 SCREEN TOP TOP1" id="TOP1" fill="#555555" width="31" height="17"/>
	<path d="M31,41v16H1V41H31 M32,40H0v18h32V40L32,40z"/>
</g>
<g>
	<rect x="0.5" y="57.5" class="st6 SCREEN TOP TOP2" id="TOP2" fill="#555555" width="31" height="17"/>
	<path d="M31,58v16H1V58H31 M32,57H0v18h32V57L32,57z"/>
</g>
<g>
	<rect x="0.5" y="74.5" class="st6 SCREEN TOP TOP3" id="TOP3" fill="#555555" width="31" height="17"/>
	<path d="M31,75v16H1V75H31 M32,74H0v18h32V74L32,74z"/>
</g>
<g>
	<rect x="31.5" y="40.5" class="st6 SCREEN TOP TOP4" id="TOP4" fill="#555555" width="31" height="17"/>
	<path d="M62,41v16H32V41H62 M63,40H31v18h32V40L63,40z"/>
</g>
<g>
	<rect x="0.5" y="23.5" class="st6 SCREEN TOP TOP5" id="TOP5" fill="#555555" width="31" height="17"/>
	<path d="M31,24v16H1V24H31 M32,23H0v18h32V23L32,23z"/>
</g>
<g>
	<rect x="31.5" y="23.5" class="st6 SCREEN TOP TOP6" id="TOP6" fill="#555555" width="31" height="17"/>
	<path d="M62,24v16H32V24H62 M63,23H31v18h32V23L63,23z"/>
</g>
<g>
	<rect x="31.5" y="57.5" class="st6 SCREEN TOP TOP7" id="TOP7" fill="#555555" width="31" height="17"/>
	<path d="M62,58v16H32V58H62 M63,57H31v18h32V57L63,57z"/>
</g>
</svg>
