<?xml version="1.0" encoding="utf-8"?>
<!-- Generator: Adobe Illustrator 20.1.0, SVG Export Plug-In . SVG Version: 6.00 Build 0)  -->
<svg version="1.1" id="Layer_1" xmlns="http://www.w3.org/2000/svg" xmlns:xlink="http://www.w3.org/1999/xlink" x="0px" y="0px"
	 viewBox="0 0 80 110" style="enable-background:new 0 0 80 110;" xml:space="preserve">
<style type="text/css">
	.st0{fill:#E1D9BE;}
	.st1{fill:#7C7C7C;}
	.st2{fill:#4B4B4B;}
	.st3{fill:#E20074;}
	.st4{fill:#B0005A;}
	.st5{fill:#FFFFFF;}
	.st6{fill:#00A0DE;}
	.st7{fill:#FFFFFF;stroke:#7C7C7C;stroke-linejoin:bevel;stroke-miterlimit:10;}
	.st8{fill:#FFFFFF;stroke:#7C7C7C;stroke-linejoin:round;stroke-miterlimit:10;}
	.st9{fill:none;stroke:#7C7C7C;stroke-linejoin:bevel;stroke-miterlimit:10;}
	.st10{fill:none;stroke:#7C7C7C;stroke-linejoin:round;stroke-miterlimit:10;}
</style>
<g>
	<rect x="24" y="38" class="st2" width="31" height="23"/>
	<path class="st1" d="M55,38v22H25V38H55 M56,37H24v24h32V37L56,37z"/>
</g>
<g>
	<rect x="24" y="61" class="st2" width="31" height="21"/>
	<path class="st1" d="M55,61v20H25V61H55 M56,60H24v22h32V60L56,60z"/>
</g>
<g>
	<rect x="31" y="50" class="st6 SCREEN INFO" id="INFO" width="17" height="31"/>
	<path d="M48,50v30H32V50H48 M49,49H31v32h18V49L49,49z"/>
</g>
<g>
	<rect x="24" y="82" class="st2" width="31" height="4"/>
	<g>
		<path class="st1" d="M55,82v3H25v-3H55 M56,81H24v5h32V81L56,81z"/>
	</g>
</g>
</svg>
