<?xml version="1.0" encoding="utf-8"?>
<!-- Generator: Adobe Illustrator 21.0.2, SVG Export Plug-In . SVG Version: 6.00 Build 0)  -->
<svg version="1.1" id="Layer_1" xmlns="http://www.w3.org/2000/svg" xmlns:xlink="http://www.w3.org/1999/xlink" x="0px" y="0px"
	 viewBox="0 0 59 110" style="enable-background:new 0 0 59 110;" xml:space="preserve">
<style type="text/css">
	.st0{fill:#4B4B4B;}
	.st1{fill:#7C7C7C;}
	.st2{fill:#FFFFFF;}
	.st3{fill:#E1D9BE;}
	.st4{fill:#E20074;}
	.st5{fill:#B0005A;}
	.st6{}
	.st7{fill:#FFFFFF;stroke:#7C7C7C;stroke-linejoin:bevel;stroke-miterlimit:10;}
	.st8{fill:#FFFFFF;stroke:#7C7C7C;stroke-linejoin:round;stroke-miterlimit:10;}
	.st9{fill:none;stroke:#7C7C7C;stroke-linejoin:bevel;stroke-miterlimit:10;}
	.st10{fill:none;stroke:#7C7C7C;stroke-linejoin:round;stroke-miterlimit:10;}
</style>
<g>
	<rect x="18.5" y="65" class="st6 SCREEN TOP" id="TOP" fill="#555555" width="20" height="12"/>
	<path d="M38.5,65v11h-19V65H38.5 M39.5,64h-21v13h21V64L39.5,64z"/>
</g>
<g>
	<rect x="21.5" y="105" width="14" height="5"/>
</g>
<g>
	<rect x="20.5" y="90" class="st2" width="15" height="15"/>
	<path class="st1" d="M35.5,90v14h-14V90H35.5 M36.5,89h-16v16h16V89L36.5,89z"/>
</g>
<g>
	<rect x="20.5" y="88" class="st3" width="31" height="2"/>
	<g>
		<path class="st1" d="M51.5,88v1h-30v-1H51.5 M52.5,87h-32v3h32V87L52.5,87z"/>
	</g>
</g>
<line class="st7" x1="4.8" y1="104.8" x2="13" y2="99.3"/>
<line class="st7" x1="14.3" y1="104.9" x2="6.1" y2="99.4"/>
<path class="st8" d="M0.5,86l2.2,8.2c0.6,2.1,2.5,3.3,4.7,3.3h0.1c3,0,5-0.9,7-0.9c2,0,3,1.3,3,1.3"/>
<line class="st7" x1="12.5" y1="97" x2="15.5" y2="110"/>
<line class="st7" x1="6.6" y1="97.4" x2="3.5" y2="110"/>
<path class="st8" d="M11.9,94.2c-0.9-1.7-1.5-2.7-3.4-2.7h-4"/>
<g>
	<line class="st9" x1="54.2" y1="104.8" x2="46" y2="99.3"/>
	<line class="st9" x1="44.7" y1="104.9" x2="52.8" y2="99.4"/>
	<path class="st10" d="M58.5,86l-2.2,8.2c-0.6,2.1-2.5,3.3-4.7,3.3h-0.1c-3,0-5-0.9-7-0.9c-2,0-3,1.3-3,1.3"/>
	<line class="st9" x1="46.5" y1="97" x2="43.5" y2="110"/>
	<line class="st9" x1="52.3" y1="97.4" x2="55.5" y2="110"/>
	<path class="st10" d="M47.1,94.2c0.9-1.7,1.5-2.7,3.4-2.7h4"/>
</g>
</svg>
