<?xml version="1.0" encoding="utf-8"?>
<!-- Generator: Adobe Illustrator 21.0.2, SVG Export Plug-In . SVG Version: 6.00 Build 0)  -->
<svg version="1.1" id="Layer_1" xmlns="http://www.w3.org/2000/svg" xmlns:xlink="http://www.w3.org/1999/xlink" x="0px" y="0px"
	 viewBox="0 0 52 110" style="enable-background:new 0 0 52 110;" xml:space="preserve">
<style type="text/css">
	.st0{fill:#4B4B4B;}
	.st1{fill:#7C7C7C;}
	.st2{fill:#FFFFFF;}
	.st3{fill:#E1D9BE;}
	.st4{fill:#E20074;}
	.st5{fill:#B0005A;}
	.st6{}
	.st7{fill:#FFFFFF;stroke:#7C7C7C;stroke-linejoin:bevel;stroke-miterlimit:10;}
	.st8{fill:#FFFFFF;stroke:#7C7C7C;stroke-linejoin:round;stroke-miterlimit:10;}
	.st9{fill:none;stroke:#7C7C7C;stroke-linejoin:bevel;stroke-miterlimit:10;}
	.st10{fill:none;stroke:#7C7C7C;stroke-linejoin:round;stroke-miterlimit:10;}
</style>
<g>
	<rect x="0" y="74" class="st2" width="51" height="8"/>
	<g>
		<path class="st1" d="M51,74v7H1v-7H51 M52,73H0v9h52V73L52,73z"/>
	</g>
</g>
<g>
	<rect x="0" y="82" class="st2" width="51" height="4"/>
	<g>
		<path class="st1" d="M51,82v3H1v-3H51 M52,81H0v5h52V81L52,81z"/>
	</g>
</g>
<g>
	<rect x="0" y="86" class="st2" width="51" height="17"/>
	<g>
		<path class="st1" d="M51,86v16H1V86H51 M52,85H0v18h52V85L52,85z"/>
	</g>
</g>
<g>
	<rect x="37.5" y="70.5" class="st6 SCREEN TOP TOP1" id="TOP1" fill="#555555" width="11" height="7"/>
	<path d="M48,71v6H38v-6H48 M49,70H37v8h12V70L49,70z"/>
</g>
</svg>
