<?xml version="1.0" encoding="utf-8"?>
<!-- Generator: Adobe Illustrator 21.0.2, SVG Export Plug-In . SVG Version: 6.00 Build 0)  -->
<svg version="1.1" id="Layer_1" xmlns="http://www.w3.org/2000/svg" xmlns:xlink="http://www.w3.org/1999/xlink" x="0px" y="0px"
	 viewBox="0 0 100 110" style="enable-background:new 0 0 100 110;" xml:space="preserve">
<style type="text/css">
	.st0{fill:#4B4B4B;}
	.st1{fill:#7C7C7C;}
	.st2{fill:#FFFFFF;}
	.st3{fill:#E1D9BE;}
	.st4{fill:#E20074;}
	.st5{fill:#B0005A;}
	.st6{}
	.st7{fill:#FFFFFF;stroke:#7C7C7C;stroke-linejoin:bevel;stroke-miterlimit:10;}
	.st8{fill:#FFFFFF;stroke:#7C7C7C;stroke-linejoin:round;stroke-miterlimit:10;}
	.st9{fill:none;stroke:#7C7C7C;stroke-linejoin:bevel;stroke-miterlimit:10;}
	.st10{fill:none;stroke:#7C7C7C;stroke-linejoin:round;stroke-miterlimit:10;}
</style>
<g>
	<rect y="61" class="st0" width="99" height="21"/>
	<path class="st1" d="M99,61v20H1V61H99 M100,60H0v22h100V60L100,60z"/>
</g>
<g>
	<rect y="38" class="st0" width="99" height="23"/>
	<path class="st1" d="M99,38v22H1V38H99 M100,37H0v24h100V37L100,37z"/>
</g>
<g>
	<rect x="1" y="61" width="17" height="20"/>
</g>
<g>
	<rect x="18" y="61" width="16" height="20"/>
</g>
<g>
	<rect x="3" y="41" class="st6 SCREEN TOP TOP1" id="TOP1" fill="#555555" width="31" height="17"/>
	<path d="M33,41v16H3V41H33 M34,40H2v18h32V40L34,40z"/>
</g>
<g>
	<rect x="35" y="41" class="st6 SCREEN TOP TOP2" id="TOP2" fill="#555555" width="31" height="17"/>
	<path d="M65,41v16H35V41H65 M66,40H34v18h32V40L66,40z"/>
</g>
<g>
	<rect x="67" y="41" class="st6 SCREEN TOP TOP3" id="TOP3" fill="#555555" width="31" height="17"/>
	<path d="M97,41v16H67V41H97 M98,40H66v18h32V40L98,40z"/>
</g>
<g>
	<rect y="82" class="st2" width="33" height="4"/>
	<path class="st1" d="M33,82v3H1v-3H33 M34,81H0v5h34V81L34,81z"/>
</g>
<g>
	<rect x="66" y="82" class="st2" width="33" height="4"/>
	<path class="st1" d="M99,82v3H67v-3H99 M100,81H66v5h34V81L100,81z"/>
</g>
<g>
	<rect x="5" y="60" class="st6 SCREEN INFO INFO1" id="INFO1" fill="#555555" width="11" height="21"/>
	<path d="M15,60v20H5V60H15 M16,59H4v22h12V59L16,59z"/>
</g>
<g>
	<rect x="50" y="61" width="16" height="44"/>
</g>
<g>
	<rect x="34" y="61" width="16" height="44"/>
</g>
<g>
	<rect x="66" y="61" width="17" height="20"/>
</g>
<g>
	<rect x="83" y="61" width="16" height="20"/>
</g>
<g>
	<rect x="69" y="60" class="st6 SCREEN INFO INFO2" id="INFO2" fill="#555555" width="11" height="21"/>
	<path d="M79,60v20H69V60H79 M80,59H68v22h12V59L80,59z"/>
</g>
</svg>
