<?xml version="1.0" encoding="utf-8"?>
<!-- Generator: Adobe Illustrator 21.0.2, SVG Export Plug-In . SVG Version: 6.00 Build 0)  -->
<svg version="1.1" id="Layer_1" xmlns="http://www.w3.org/2000/svg" xmlns:xlink="http://www.w3.org/1999/xlink" x="0px" y="0px"
	 viewBox="0 0 32 110" style="enable-background:new 0 0 32 110;" xml:space="preserve">
<style type="text/css">
	.st0{fill:#4B4B4B;}
	.st1{fill:#7C7C7C;}
	.st2{fill:#FFFFFF;}
	.st3{fill:#E1D9BE;}
	.st4{fill:#E20074;}
	.st5{fill:#B0005A;}
	.st6{}
	.st7{fill:#FFFFFF;stroke:#7C7C7C;stroke-linejoin:bevel;stroke-miterlimit:10;}
	.st8{fill:#FFFFFF;stroke:#7C7C7C;stroke-linejoin:round;stroke-miterlimit:10;}
	.st9{fill:none;stroke:#7C7C7C;stroke-linejoin:bevel;stroke-miterlimit:10;}
	.st10{fill:none;stroke:#7C7C7C;stroke-linejoin:round;stroke-miterlimit:10;}
</style>
<g>
	<rect x="0" y="38" class="st0" width="31" height="23"/>
	<path class="st1" d="M31,38v22H1V38H31 M32,37H0v24h32V37L32,37z"/>
</g>
<g>
	<rect x="0" y="61" class="st0" width="31" height="21"/>
	<path class="st1" d="M31,61v20H1V61H31 M32,60H0v22h32V60L32,60z"/>
</g>
<g>
	<rect x="7" y="50" class="st6 SCREEN INFO INFO1" id="INFO1" fill="#555555" width="17" height="31"/>
	<path d="M24,50v30H8V50H24 M25,49H7v32h18V49L25,49z"/>
</g>
<g>
	<rect x="0" y="82" class="st0" width="31" height="4"/>
	<g>
		<path class="st1" d="M31,82v3H1v-3H31 M32,81H0v5h32V81L32,81z"/>
	</g>
</g>
</svg>
